<mxfile host="app.diagrams.net" agent="Mozilla/5.0 (Windows NT 10.0; Win64; x64) AppleWebKit/537.36 (KHTML, like Gecko) Chrome/137.0.0.0 Safari/537.36 OPR/121.0.0.0" version="28.2.5">
  <diagram name="Página-1" id="1MmqQoYbbzRtk2RIelFz">
    <mxGraphModel dx="1305" dy="602" grid="1" gridSize="10" guides="1" tooltips="1" connect="1" arrows="1" fold="1" page="1" pageScale="1" pageWidth="980" pageHeight="1390" math="0" shadow="0">
      <root>
        <mxCell id="0" />
        <mxCell id="1" parent="0" />
        <mxCell id="b5mbstWVNlXJfVKiL2Rt-1" style="edgeStyle=orthogonalEdgeStyle;rounded=0;orthogonalLoop=1;jettySize=auto;html=1;entryX=0.5;entryY=0;entryDx=0;entryDy=0;" edge="1" parent="1" source="b5mbstWVNlXJfVKiL2Rt-2" target="b5mbstWVNlXJfVKiL2Rt-6">
          <mxGeometry relative="1" as="geometry" />
        </mxCell>
        <mxCell id="b5mbstWVNlXJfVKiL2Rt-2" value="" style="ellipse;html=1;shape=endState;fillColor=#000000;strokeColor=#ff0000;" vertex="1" parent="1">
          <mxGeometry x="177.5" y="200" width="30" height="30" as="geometry" />
        </mxCell>
        <mxCell id="b5mbstWVNlXJfVKiL2Rt-3" value="Estado Inicial" style="text;html=1;align=center;verticalAlign=middle;resizable=0;points=[];autosize=1;strokeColor=none;fillColor=none;" vertex="1" parent="1">
          <mxGeometry x="148.5" y="170" width="90" height="30" as="geometry" />
        </mxCell>
        <mxCell id="b5mbstWVNlXJfVKiL2Rt-4" value="Diagrama de Estados - Objeto Eleitor&amp;nbsp;" style="text;html=1;align=center;verticalAlign=middle;resizable=0;points=[];autosize=1;strokeColor=none;fillColor=none;fontStyle=3;fontSize=30;" vertex="1" parent="1">
          <mxGeometry x="228.5" y="100" width="530" height="50" as="geometry" />
        </mxCell>
        <mxCell id="b5mbstWVNlXJfVKiL2Rt-5" value="Eleitor não identificado" style="html=1;whiteSpace=wrap;" vertex="1" parent="1">
          <mxGeometry x="207.5" y="200" width="100" height="40" as="geometry" />
        </mxCell>
        <mxCell id="b5mbstWVNlXJfVKiL2Rt-6" value="Identificando" style="swimlane;fontStyle=1;align=center;verticalAlign=middle;childLayout=stackLayout;horizontal=1;startSize=30;horizontalStack=0;resizeParent=0;resizeLast=1;container=0;fontColor=#000000;collapsible=0;rounded=1;arcSize=30;strokeColor=#ff0000;fillColor=#ffffc0;swimlaneFillColor=#ffffc0;dropTarget=0;fontSize=10;" vertex="1" parent="1">
          <mxGeometry x="132" y="290" width="121.5" height="50" as="geometry" />
        </mxCell>
        <mxCell id="b5mbstWVNlXJfVKiL2Rt-7" value="IdentificarEleitor()" style="text;html=1;strokeColor=none;fillColor=none;align=center;verticalAlign=middle;spacingLeft=4;spacingRight=4;whiteSpace=wrap;overflow=hidden;rotatable=0;fontColor=#000000;fontSize=10;" vertex="1" parent="b5mbstWVNlXJfVKiL2Rt-6">
          <mxGeometry y="30" width="121.5" height="20" as="geometry" />
        </mxCell>
        <mxCell id="b5mbstWVNlXJfVKiL2Rt-8" value="Condition" style="rhombus;whiteSpace=wrap;html=1;fontColor=#000000;fillColor=#ffffc0;strokeColor=#ff0000;" vertex="1" parent="1">
          <mxGeometry x="158.5" y="340" width="80" height="40" as="geometry" />
        </mxCell>
        <mxCell id="b5mbstWVNlXJfVKiL2Rt-9" value="Eleitor não&lt;div&gt;&amp;nbsp;REGISTRADO&lt;/div&gt;" style="edgeStyle=orthogonalEdgeStyle;html=1;align=left;verticalAlign=bottom;endArrow=open;endSize=8;strokeColor=#ff0000;rounded=0;" edge="1" parent="1" source="b5mbstWVNlXJfVKiL2Rt-8">
          <mxGeometry x="-0.77" y="10" relative="1" as="geometry">
            <mxPoint x="338.5" y="360" as="targetPoint" />
            <mxPoint as="offset" />
          </mxGeometry>
        </mxCell>
        <mxCell id="b5mbstWVNlXJfVKiL2Rt-10" value="Eleitor no sistema/lista" style="edgeStyle=orthogonalEdgeStyle;html=1;align=left;verticalAlign=top;endArrow=open;endSize=8;strokeColor=#ff0000;rounded=0;" edge="1" parent="1" source="b5mbstWVNlXJfVKiL2Rt-8">
          <mxGeometry x="-1" relative="1" as="geometry">
            <mxPoint x="198.5" y="440" as="targetPoint" />
          </mxGeometry>
        </mxCell>
        <mxCell id="b5mbstWVNlXJfVKiL2Rt-11" style="edgeStyle=orthogonalEdgeStyle;rounded=0;orthogonalLoop=1;jettySize=auto;html=1;" edge="1" parent="1" source="b5mbstWVNlXJfVKiL2Rt-12" target="b5mbstWVNlXJfVKiL2Rt-14">
          <mxGeometry relative="1" as="geometry" />
        </mxCell>
        <mxCell id="b5mbstWVNlXJfVKiL2Rt-12" value="Eleitor Identificado não liberado" style="html=1;whiteSpace=wrap;" vertex="1" parent="1">
          <mxGeometry x="148.5" y="440" width="100" height="40" as="geometry" />
        </mxCell>
        <mxCell id="b5mbstWVNlXJfVKiL2Rt-13" value="Eleitor não identificado" style="html=1;whiteSpace=wrap;" vertex="1" parent="1">
          <mxGeometry x="338.5" y="340" width="100" height="40" as="geometry" />
        </mxCell>
        <mxCell id="b5mbstWVNlXJfVKiL2Rt-14" value="LiberarUrna()" style="swimlane;fontStyle=1;align=center;verticalAlign=middle;childLayout=stackLayout;horizontal=1;startSize=30;horizontalStack=0;resizeParent=0;resizeLast=1;container=0;fontColor=#000000;collapsible=0;rounded=1;arcSize=50;strokeColor=#ff0000;fillColor=#ffffc0;swimlaneFillColor=#ffffc0;dropTarget=0;fontSize=10;" vertex="1" parent="1">
          <mxGeometry x="137" y="530" width="121.5" height="50" as="geometry" />
        </mxCell>
        <mxCell id="b5mbstWVNlXJfVKiL2Rt-15" value="AutorizarEleitor()" style="text;html=1;strokeColor=none;fillColor=none;align=center;verticalAlign=middle;spacingLeft=4;spacingRight=4;whiteSpace=wrap;overflow=hidden;rotatable=0;fontColor=#000000;fontSize=10;" vertex="1" parent="b5mbstWVNlXJfVKiL2Rt-14">
          <mxGeometry y="30" width="121.5" height="20" as="geometry" />
        </mxCell>
        <mxCell id="b5mbstWVNlXJfVKiL2Rt-23" value="Eleitor Liberado" style="html=1;whiteSpace=wrap;" vertex="1" parent="1">
          <mxGeometry x="338.5" y="540" width="100" height="40" as="geometry" />
        </mxCell>
        <mxCell id="b5mbstWVNlXJfVKiL2Rt-24" value="Votando" style="swimlane;fontStyle=1;align=center;verticalAlign=middle;childLayout=stackLayout;horizontal=1;startSize=30;horizontalStack=0;resizeParent=0;resizeLast=1;container=0;fontColor=#000000;collapsible=0;rounded=1;arcSize=50;strokeColor=#ff0000;fillColor=#ffffc0;swimlaneFillColor=#ffffc0;dropTarget=0;fontSize=10;" vertex="1" parent="1">
          <mxGeometry x="500" y="540" width="121.5" height="50" as="geometry" />
        </mxCell>
        <mxCell id="b5mbstWVNlXJfVKiL2Rt-25" value="RealizarVoto()" style="text;html=1;strokeColor=none;fillColor=none;align=center;verticalAlign=middle;spacingLeft=4;spacingRight=4;whiteSpace=wrap;overflow=hidden;rotatable=0;fontColor=#000000;fontSize=10;" vertex="1" parent="b5mbstWVNlXJfVKiL2Rt-24">
          <mxGeometry y="30" width="121.5" height="20" as="geometry" />
        </mxCell>
        <mxCell id="b5mbstWVNlXJfVKiL2Rt-26" value="Eleitor Liberado" style="html=1;whiteSpace=wrap;" vertex="1" parent="1">
          <mxGeometry x="820" y="370" width="100" height="40" as="geometry" />
        </mxCell>
        <mxCell id="b5mbstWVNlXJfVKiL2Rt-27" value="Condition" style="rhombus;whiteSpace=wrap;html=1;fontColor=#000000;fillColor=#ffffc0;strokeColor=#ff0000;" vertex="1" parent="1">
          <mxGeometry x="621.5" y="540" width="80" height="40" as="geometry" />
        </mxCell>
        <mxCell id="b5mbstWVNlXJfVKiL2Rt-28" value="Erro no sistema" style="edgeStyle=orthogonalEdgeStyle;html=1;align=center;verticalAlign=bottom;endArrow=open;endSize=8;strokeColor=#ff0000;rounded=0;entryX=0.5;entryY=1;entryDx=0;entryDy=0;" edge="1" parent="1" source="b5mbstWVNlXJfVKiL2Rt-27" target="b5mbstWVNlXJfVKiL2Rt-26">
          <mxGeometry x="0.2697" y="4" relative="1" as="geometry">
            <mxPoint x="710" y="756" as="targetPoint" />
            <mxPoint as="offset" />
          </mxGeometry>
        </mxCell>
        <mxCell id="b5mbstWVNlXJfVKiL2Rt-29" value="Todos os votos&lt;br&gt;&amp;nbsp;completos" style="edgeStyle=orthogonalEdgeStyle;html=1;align=center;verticalAlign=top;endArrow=open;endSize=8;strokeColor=#ff0000;rounded=0;exitX=0.5;exitY=0;exitDx=0;exitDy=0;" edge="1" parent="1" source="b5mbstWVNlXJfVKiL2Rt-27" target="b5mbstWVNlXJfVKiL2Rt-32">
          <mxGeometry x="0.2986" y="20" relative="1" as="geometry">
            <mxPoint x="569.25" y="520" as="targetPoint" />
            <mxPoint x="-1" as="offset" />
            <Array as="points">
              <mxPoint x="700" y="545" />
            </Array>
          </mxGeometry>
        </mxCell>
        <mxCell id="b5mbstWVNlXJfVKiL2Rt-30" style="edgeStyle=orthogonalEdgeStyle;rounded=0;orthogonalLoop=1;jettySize=auto;html=1;entryX=0.001;entryY=0.394;entryDx=0;entryDy=0;entryPerimeter=0;" edge="1" parent="1" source="b5mbstWVNlXJfVKiL2Rt-23" target="b5mbstWVNlXJfVKiL2Rt-24">
          <mxGeometry relative="1" as="geometry" />
        </mxCell>
        <mxCell id="b5mbstWVNlXJfVKiL2Rt-32" value="" style="ellipse;html=1;shape=endState;fillColor=#000000;strokeColor=#ff0000;" vertex="1" parent="1">
          <mxGeometry x="688.5" y="230" width="30" height="30" as="geometry" />
        </mxCell>
        <mxCell id="b5mbstWVNlXJfVKiL2Rt-33" value="Estado Final" style="text;html=1;align=center;verticalAlign=middle;resizable=0;points=[];autosize=1;strokeColor=none;fillColor=none;" vertex="1" parent="1">
          <mxGeometry x="658.5" y="200" width="90" height="30" as="geometry" />
        </mxCell>
        <mxCell id="b5mbstWVNlXJfVKiL2Rt-38" style="edgeStyle=orthogonalEdgeStyle;rounded=0;orthogonalLoop=1;jettySize=auto;html=1;exitX=0;exitY=0;exitDx=0;exitDy=0;entryX=0;entryY=0.25;entryDx=0;entryDy=0;" edge="1" parent="1" source="b5mbstWVNlXJfVKiL2Rt-5" target="b5mbstWVNlXJfVKiL2Rt-5">
          <mxGeometry relative="1" as="geometry" />
        </mxCell>
        <mxCell id="b5mbstWVNlXJfVKiL2Rt-39" style="edgeStyle=orthogonalEdgeStyle;rounded=0;orthogonalLoop=1;jettySize=auto;html=1;entryX=0;entryY=0.5;entryDx=0;entryDy=0;exitX=1;exitY=0;exitDx=0;exitDy=0;" edge="1" parent="1" source="b5mbstWVNlXJfVKiL2Rt-15" target="b5mbstWVNlXJfVKiL2Rt-23">
          <mxGeometry relative="1" as="geometry">
            <Array as="points">
              <mxPoint x="280" y="560" />
              <mxPoint x="280" y="560" />
            </Array>
          </mxGeometry>
        </mxCell>
        <mxCell id="b5mbstWVNlXJfVKiL2Rt-40" value="Eleitor Impossibilitado de votar" style="html=1;whiteSpace=wrap;" vertex="1" parent="1">
          <mxGeometry x="748.5" y="225" width="100" height="40" as="geometry" />
        </mxCell>
      </root>
    </mxGraphModel>
  </diagram>
</mxfile>
